<?xml version="1.0" encoding="UTF-8"?>
<!DOCTYPE svg PUBLIC "-//W3C//DTD SVG 1.1//EN" "http://www.w3.org/Graphics/SVG/1.1/DTD/svg11.dtd">
<!-- Creator: CorelDRAW X7 -->
<svg xmlns="http://www.w3.org/2000/svg" xml:space="preserve" width="100px" height="100px" version="1.1" style="shape-rendering:geometricPrecision; text-rendering:geometricPrecision; image-rendering:optimizeQuality; fill-rule:evenodd; clip-rule:evenodd"
viewBox="0 0 100 100"
 xmlns:xlink="http://www.w3.org/1999/xlink">
 <defs>
  <style type="text/css">
   <![CDATA[
    .fil0 {fill:#FD7D4E}
   ]]>
  </style>
 </defs>
 <g id="Layer_x0020_1">
  <metadata id="CorelCorpID_0Corel-Layer"/>
  <path class="fil0" d="M83 25c2,2 -1,5 -3,3 -1,-1 0,-4 3,-3zm-35 21c13,-2 9,1 28,-4 -2,-2 -5,-4 -6,-8 11,15 23,-2 23,-6 -5,-3 -10,-9 -22,-9 -11,0 -19,3 -25,8 -6,4 -12,11 -15,19 -6,12 -3,18 -3,28 -5,-2 -5,-3 -11,-3 2,-3 4,-5 6,-8 -7,2 -14,8 -19,14 6,0 19,-3 27,7 2,1 2,1 3,3 0,-13 1,-22 7,-31 2,-3 3,-5 5,-7l2 -3 0 0z"/>
  <path class="fil0" d="M51 21l12 -4c-6,-4 -10,-4 -18,-4 2,1 5,6 6,8z"/>
  <path class="fil0" d="M63 47l-2 9c5,-3 8,-6 11,-11l-9 2 0 0z"/>
 </g>
</svg>
