<?xml version="1.0" encoding="UTF-8"?>
<!DOCTYPE svg PUBLIC "-//W3C//DTD SVG 1.1//EN" "http://www.w3.org/Graphics/SVG/1.1/DTD/svg11.dtd">
<!-- Creator: CorelDRAW X7 -->
<svg xmlns="http://www.w3.org/2000/svg" xml:space="preserve" width="100px" height="100px" version="1.1" style="shape-rendering:geometricPrecision; text-rendering:geometricPrecision; image-rendering:optimizeQuality; fill-rule:evenodd; clip-rule:evenodd"
viewBox="0 0 100 100"
 xmlns:xlink="http://www.w3.org/1999/xlink">
 <defs>
  <style type="text/css">
   <![CDATA[
    .fil0 {fill:#D2905D}
   ]]>
  </style>
 </defs>
 <g id="Layer_x0020_1">
  <metadata id="CorelCorpID_0Corel-Layer"/>
  <g id="_2014822279136">
   <path class="fil0" d="M85 27c2,2 -1,5 -3,3 -1,-2 1,-5 3,-3zm-35 20c13,-1 9,2 28,-3 -2,-3 -5,-5 -6,-8 11,14 23,-3 24,-6 -6,-3 -11,-9 -23,-10 -11,0 -18,4 -25,8 -6,5 -11,11 -15,19 -5,13 -3,19 -3,29 -4,-2 -5,-3 -10,-3 1,-4 3,-5 6,-8 -8,1 -14,8 -19,14 5,0 18,-3 27,6 2,2 1,2 3,3 -1,-12 0,-22 7,-30 1,-3 3,-5 4,-7l2 -4 0 0z"/>
   <path class="fil0" d="M53 22l12 -3c-6,-4 -10,-5 -18,-5 3,2 6,6 6,8z"/>
   <path class="fil0" d="M66 49l-3 9c5,-3 9,-6 11,-11l-8 2 0 0z"/>
  </g>
 </g>
</svg>
