<?xml version="1.0" encoding="UTF-8"?>
<!DOCTYPE svg PUBLIC "-//W3C//DTD SVG 1.1//EN" "http://www.w3.org/Graphics/SVG/1.1/DTD/svg11.dtd">
<!-- Creator: CorelDRAW X7 -->
<svg xmlns="http://www.w3.org/2000/svg" xml:space="preserve" width="100px" height="100px" version="1.1" style="shape-rendering:geometricPrecision; text-rendering:geometricPrecision; image-rendering:optimizeQuality; fill-rule:evenodd; clip-rule:evenodd"
viewBox="0 0 100 100"
 xmlns:xlink="http://www.w3.org/1999/xlink">
 <defs>
  <style type="text/css">
   <![CDATA[
    .fil5 {fill:#02020A}
    .fil2 {fill:#161A2D}
    .fil6 {fill:#AA5505}
    .fil8 {fill:#AF4952}
    .fil0 {fill:#D5EFF0}
    .fil3 {fill:#E6E6E6}
    .fil7 {fill:#F15C62}
    .fil4 {fill:#FF942D}
    .fil1 {fill:white}
   ]]>
  </style>
 </defs>
 <g id="Layer_x0020_1">
  <metadata id="CorelCorpID_0Corel-Layer"/>
  <g id="_2015039393984">
   <path class="fil0" d="M50 35c-3,5 -6,6 -11,3 -8,6 -8,19 -4,28l5 4 2 1 0 0c8,1 9,1 17,-2l3 -3c2,-9 3,-11 0,-21 -2,-7 -4,-9 -12,-10l0 0z"/>
   <path class="fil1" d="M69 47l-1 5c4,1 6,1 8,4 0,11 -24,18 -33,19l-5 1c-4,-1 -6,-1 -7,-5l5 -3 0 0 -1 -1 -1 -1c-7,2 -24,13 -26,21 2,6 5,7 11,7 4,-3 13,-6 17,-9 6,-2 11,-5 17,-8 8,-5 26,-13 33,-18 -3,-5 -8,-7 -11,-12 -3,-3 -2,-2 -6,0zm-9 27c-1,0 -1,-1 0,1l0 -1zm-1 1c-2,0 -2,-1 -1,1l1 -1z"/>
   <path class="fil0" d="M75 47c3,5 8,7 11,12 1,3 -22,13 -26,15l0 1 -1 0 -1 1 -3 2c6,-1 24,-2 27,-5l0 -3c21,-10 10,-10 12,-16 1,-3 3,-4 1,-8 -3,-7 -9,-3 -12,0 -4,-3 -4,-3 -8,1z"/>
   <path class="fil2" d="M33 32l0 3 -2 -1 2 -2zm25 -1l1 1 0 2 -2 0c0,-2 -1,0 1,-3zm-19 0l1 0 2 -1 4 0c3,2 2,2 4,5 8,1 10,3 12,10 3,10 2,12 0,21l-3 3 -1 1 4 -3 0 0 0 -1 1 0 1 -1 2 -4 2 -9 1 -5c0,-8 -3,-8 2,-15 2,-3 6,-7 6,-11 -20,-1 -12,-1 -21,-16 -7,9 -6,-2 -12,2 -3,4 -5,5 -9,9 -3,3 -2,4 -3,7 0,4 -4,15 -5,19 -1,5 -8,10 -6,16 12,1 7,0 13,8l1 1 1 1 0 0 1 1 -1 -1 -1 -1 0 -1c-4,-9 -4,-22 4,-28l-1 -3 0 -1 0 -1c0,-1 0,-1 1,-1l0 -1z"/>
   <path class="fil3" d="M59 69c-8,3 -9,3 -17,2l1 4c9,-1 33,-8 33,-19 -2,-3 -4,-3 -8,-4l-2 9 3 0c0,4 -4,5 -7,6l-4 3 1 -1zm5 -4l-1 1 -1 0 0 1 1 -1 1 -1z"/>
   <path class="fil3" d="M19 94c10,0 26,-13 36,-16l3 -2c-1,-2 -1,-1 1,-1l1 0c-1,-2 -1,-1 0,-1 4,-2 27,-12 26,-15 -7,5 -25,13 -33,18 -6,3 -11,6 -17,8 -4,3 -13,6 -17,9z"/>
   <path class="fil4" d="M45 33c0,0 1,-1 1,0 1,1 -1,0 -1,0zm-5 -2c0,1 0,1 -1,1l-1 1 0 1 0 1c6,4 6,3 12,0l0 0c-2,-3 -1,-3 -4,-5l-3 1 -1 2 -2 -2z"/>
   <path class="fil3" d="M36 68l-5 3c1,4 3,4 7,5l-4 -3 6 -3c0,1 -1,1 2,1l-2 -1 -5 -4 0 1 1 1 1 1 -1 -1z"/>
   <path class="fil4" d="M38 76l5 -1 -1 -4 0 0c-3,0 -2,0 -2,-1l-6 3 4 3z"/>
   <g>
    <path class="fil0" d="M54 24l-1 5 -4 -1c-2,-2 -2,-3 0,-6 1,0 3,1 5,2zm-5 -5c-8,5 -1,17 7,12 5,-3 1,-17 -7,-12z"/>
    <path class="fil5" d="M54 24c-1,-1 -5,-2 -5,-2 -2,3 -2,4 0,6l4 1 1 -5z"/>
   </g>
   <g>
    <path class="fil0" d="M39 23l-1 4 -4 0c-2,-2 -2,-3 0,-6 1,0 4,1 5,2zm-4 -5c-8,5 -1,17 6,12 6,-3 2,-17 -6,-12z"/>
    <path class="fil5" d="M39 23c-1,-1 -4,-2 -5,-2 -2,3 -2,4 0,6l4 0 1 -4z"/>
   </g>
   <path class="fil6" d="M39 38c5,3 8,2 11,-3 -6,3 -6,4 -12,0l1 3z"/>
   <path class="fil4" d="M64 65l-1 1 -1 1 0 0c3,-1 7,-2 7,-6l-3 0 -2 4z"/>
   <path class="fil6" d="M40 31l-1 0 0 1c-1,0 -1,0 -1,1l0 1 0 -1 1 -1c1,0 1,0 1,-1l2 2 1 -2 3 -1 -4 0 -2 1z"/>
   <polygon class="fil7" points="57,34 59,34 59,32 58,31 "/>
   <polygon class="fil7" points="31,34 33,35 33,32 "/>
   <path class="fil8" d="M57 34l2 0 0 -2 0 2 -2 0 1 -3c-2,3 -1,1 -1,3z"/>
   <path class="fil6" d="M45 33c0,0 2,1 1,0 0,-1 -1,0 -1,0z"/>
  </g>
 </g>
</svg>
