<?xml version="1.0" encoding="UTF-8"?>
<!DOCTYPE svg PUBLIC "-//W3C//DTD SVG 1.1//EN" "http://www.w3.org/Graphics/SVG/1.1/DTD/svg11.dtd">
<!-- Creator: CorelDRAW X7 -->
<svg xmlns="http://www.w3.org/2000/svg" xml:space="preserve" width="100px" height="100px" version="1.1" style="shape-rendering:geometricPrecision; text-rendering:geometricPrecision; image-rendering:optimizeQuality; fill-rule:evenodd; clip-rule:evenodd"
viewBox="0 0 100 100"
 xmlns:xlink="http://www.w3.org/1999/xlink">
 <defs>
  <style type="text/css">
   <![CDATA[
    .fil3 {fill:#31ABE6}
    .fil1 {fill:#465A65}
    .fil2 {fill:#4CCBF4}
    .fil0 {fill:#8798A0}
    .fil5 {fill:#ACBAC2}
    .fil4 {fill:#CBDADE}
   ]]>
  </style>
 </defs>
 <g id="Layer_x0020_1">
  <metadata id="CorelCorpID_0Corel-Layer"/>
  <path class="fil0" d="M38 53l-3 3 3 -3zm-4 4l3 1 27 0c-1,-2 -1,0 0,-2 0,0 1,-2 1,-3 2,-6 0,-11 -6,-13 -11,-5 -2,0 -8,-7 -3,-3 -8,-5 -9,-6 -4,-3 -2,-1 -4,-1 2,2 5,4 2,8 0,1 0,1 -1,0 0,2 0,1 1,1l1 0c1,-2 0,-3 1,1 1,4 1,7 0,11l0 -1c0,0 0,-1 0,-1 -1,0 0,0 0,-1 -1,-1 0,-1 0,-1l0 -1 -1 0 -1 5 0 0 2 1 -2 1 -1 2 2 -1c-3,5 -3,4 -7,7zm4 -7l-1 1 -1 1c1,0 1,0 1,-1l1 -1 1 -1 -1 1z"/>
  <path class="fil1" d="M64 58c5,0 11,0 14,-3l-3 -3c-10,-12 -14,-19 -29,-24l-2 -1 -1 0 -1 0c1,1 6,3 9,6 6,7 -3,2 8,7 6,2 8,7 6,13 0,1 -1,3 -1,3 -1,2 -1,0 0,2z"/>
  <path class="fil2" d="M37 64l2 0 -2 0c2,-2 3,-2 5,-3 -8,-2 -17,1 -25,-3 5,-1 11,0 16,1l0 -2 -1 1c-2,0 -3,1 -4,-1l1 -3 2 0 3 1 1 -2c-15,0 -8,-3 -17,0 -4,2 -12,1 -16,3l0 0c5,2 18,-4 25,-1 -4,1 -8,0 -12,1 -5,2 -6,1 -11,2l9 2c-4,3 -2,1 -6,2l15 -1c1,4 2,-1 0,2 -1,1 -1,-1 -1,1 6,0 4,-3 9,-2 -4,1 -2,-1 -4,2 0,0 11,0 11,0z"/>
  <path class="fil2" d="M89 58l0 0c-4,3 -11,3 -16,3l-2 1 -4 2 2 0 6 0 2 -1 4 -1 1 0c6,-1 13,-2 16,-7 -4,-5 -12,-5 -18,-5l0 1 5 1c0,4 -1,4 -4,5 -3,2 -4,3 -8,1l-1 1 2 0 -4 1c1,1 -2,2 3,1 6,-1 16,-3 14,-9l3 0 2 2 2 2 -1 -4c3,2 1,0 2,3l-4 3 1 -2 -3 2z"/>
  <path class="fil1" d="M37 31l1 0 1 3c1,1 1,1 1,0 -3,-8 -4,-6 -8,-10 3,-2 9,-1 12,1l7 3c2,-1 2,-1 1,1l1 0c2,-1 2,-1 1,1l1 0c2,-1 1,-1 1,1 3,1 6,2 8,5 6,4 7,5 10,10l2 -1 -1 -2 -4 -4 -3 -2c-2,0 -2,0 -2,-2l-9 -6 -4 -2c-6,-3 -17,-8 -23,-3 2,3 4,2 7,7zm42 23c2,-1 2,2 2,-2l-1 -1 0 -1 -2 -3 -2 -1c0,4 2,3 3,8zm-38 -12l1 0 -1 -7 -1 0 1 7z"/>
  <path class="fil3" d="M79 54c0,1 1,1 -1,1 -3,3 -9,3 -14,3l-27 0 -2 1c6,3 24,0 32,0 -4,2 -6,2 -11,2l15 1 2 -1 0 0c-5,1 -2,0 -3,-1l-3 -1 5 0 1 -1c6,-1 6,0 9,-4l-1 -2c0,4 0,1 -2,2z"/>
  <path class="fil4" d="M44 27l2 1c15,5 19,12 29,24 -1,-5 -2,-5 -4,-8 -3,-5 -4,-4 -7,-8 -2,-3 -5,-4 -8,-5l-1 -1 -1 0 -1 -1 -1 0 -1 -1 -7 -3 -1 2 1 0z"/>
  <path class="fil5" d="M40 34c3,-4 0,-6 -2,-8 2,0 0,-2 4,1l1 0 1 -2c-3,-2 -9,-3 -12,-1 4,4 5,2 8,10zm2 8l0 1 0 3 0 1c1,-4 1,-7 0,-11 -1,-4 0,-3 -1,-1l1 7zm-2 7l2 -1 -2 -1 0 2z"/>
  <path class="fil5" d="M75 52l3 3c2,0 1,0 1,-1 -1,-5 -3,-4 -3,-8l2 1 -2 -2 -2 1c-3,-5 -4,-6 -10,-10 3,4 4,3 7,8 2,3 3,3 4,8z"/>
  <path class="fil1" d="M39 49l-1 1 -1 1c0,1 0,1 -1,1l-1 1 -1 2 -3 -1 0 2 -3 1c1,2 2,1 4,1l3 -2 3 -3 1 -2 1 -2 0 -2 0 0c-1,1 -1,-1 -1,2z"/>
  <path class="fil4" d="M39 51l-1 2 -3 3 -3 2 1 -1 1 0c4,-3 4,-2 7,-7l-2 1z"/>
  <path class="fil0" d="M57 29l-4 -2 4 2zm-1 2c0,-2 1,-2 -1,-1l1 1zm-2 -1c1,-2 1,-2 -1,-1l1 1zm-2 -1c1,-2 1,-2 -1,-1l1 1z"/>
  <path class="fil1" d="M42 46l0 -3c0,0 -1,0 0,1 0,1 -1,1 0,1 0,0 0,1 0,1z"/>
  <polygon class="fil0" points="46,28 44,27 "/>
  <polygon class="fil5" points="38,31 37,31 "/>
  <polygon class="fil0" points="75,43 71,39 "/>
 </g>
</svg>
