<?xml version="1.0" encoding="UTF-8"?>
<!DOCTYPE svg PUBLIC "-//W3C//DTD SVG 1.1//EN" "http://www.w3.org/Graphics/SVG/1.1/DTD/svg11.dtd">
<!-- Creator: CorelDRAW X7 -->
<svg xmlns="http://www.w3.org/2000/svg" xml:space="preserve" width="100px" height="100px" version="1.1" style="shape-rendering:geometricPrecision; text-rendering:geometricPrecision; image-rendering:optimizeQuality; fill-rule:evenodd; clip-rule:evenodd"
viewBox="0 0 100 100"
 xmlns:xlink="http://www.w3.org/1999/xlink">
 <defs>
  <style type="text/css">
   <![CDATA[
    .fil0 {fill:#D2905D}
   ]]>
  </style>
 </defs>
 <g id="Layer_x0020_1">
  <metadata id="CorelCorpID_0Corel-Layer"/>
  <path class="fil0" d="M33 38c1,-19 44,-15 44,13 0,9 -6,16 -13,20 -3,2 -5,2 -10,2l1 -1c5,-3 13,-8 13,-17 0,-11 -8,-23 -21,-23 -8,0 -9,3 -14,6zm68 38l0 2c-7,2 -13,7 -26,3 -3,0 -4,-1 -7,-2 -5,-2 -13,-2 -19,-1 -7,1 -23,3 -31,3l17 -3c9,-2 18,-5 24,-15 2,-4 1,-8 1,-13l-1 0c0,7 -3,11 -7,15 -4,3 -3,2 -7,5 -3,1 -4,2 -7,3 -14,5 -18,0 -29,-2 -1,0 -9,1 -7,-1 11,-5 31,7 43,-10 4,-3 13,-38 -13,-14 -7,-11 5,-22 12,-24 15,-5 33,0 42,14 11,18 -3,33 -3,38 9,5 13,2 18,2zm-102 -4l0 0c0,0 0,0 0,0z"/>
 </g>
</svg>
